<?xml version="1.0" encoding="UTF-8" standalone="no"?>
<svg
   xmlns:dc="http://purl.org/dc/elements/1.1/"
   xmlns:cc="http://creativecommons.org/ns#"
   xmlns:rdf="http://www.w3.org/1999/02/22-rdf-syntax-ns#"
   xmlns:svg="http://www.w3.org/2000/svg"
   xmlns="http://www.w3.org/2000/svg"
   viewBox="0 0 1052.5 432.17499"
   height="432.17499"
   width="1052.5"
   xml:space="preserve"
   version="1.1"
   id="svg2"><metadata
     id="metadata8"><rdf:RDF><cc:Work
         rdf:about=""><dc:format>image/svg+xml</dc:format><dc:type
           rdf:resource="http://purl.org/dc/dcmitype/StillImage" /></cc:Work></rdf:RDF></metadata><defs
     id="defs6" /><g
     transform="matrix(1.25,0,0,-1.25,0,432.175)"
     id="g10"><path
       id="path12"
       style="fill:none;stroke:#000000;stroke-width:0.035;stroke-linecap:round;stroke-linejoin:round;stroke-miterlimit:10;stroke-dasharray:none;stroke-opacity:1"
       d="m 153.51,343.91 -11.17,-1.53 -11.03,-2.33 0,0 -11.33,-3.18 -11.1,-3.88 0,0 -10.83,-4.56 -10.52,-5.23 0,0 -9.69,-5.65 -9.26,-6.34 0,0 -8.96,-7.09 -8.47,-7.68 -7.93,-8.23 0,0 -7.11,-8.5 -6.45,-9 -5.78,-9.46 0,0 -5.16,-10.03 -4.43,-10.38 -3.67,-10.68 0,0 -3.14,-11.6 -2.44,-11.76 -1.73,-11.89 0,0 -0.67,-9.14 0,0 -0.2,-13.17 0,0 0.2,-13.14 0,0 0.66,-9.04 0,0 1.45,-10.21 1.95,-10.13 2.47,-10.02 0,0 2.83,-9.32 3.38,-9.14 3.92,-8.92 0,0 4.35,-8.48 4.85,-8.2 5.34,-7.89 0,0 5.9,-7.7 6.33,-7.34 6.75,-6.96 0,0 6.75,-6.21 7.09,-5.8 7.42,-5.39 0,0 7.68,-4.92 7.95,-4.45 8.21,-3.98 0,0 8.55,-3.55 8.75,-3.05 8.91,-2.54 0,0 9.35,-2.12 9.46,-1.62 9.53,-1.14 0,0 5.57,-0.3 0,0 17.21,-0.21 0,0 21.37,-0.15 0,0 25.53,-0.05 62.03,0 0.02,9.91 0,0 0.05,6.88 0,0 0.35,24.1 0,0 0.44,28.57 0,0 0.51,32 0,0 0.51,31.32 0,0 0.4,26.37 0,0 0.35,23.94 0,0 -0.01,0.05 -0.05,0.04 0,0 -0.11,0.04 0,0 -11.11,3.54 0,0 -12.26,3.91 0,0 -14.54,4.62 0,0 -14.58,4.65 0,0 -12.4,3.95 0,0 -11.05,3.53 0,0 -0.65,0.22 0,0 -0.49,-0.01 -0.36,-0.35 0,0 -1.31,-3.09 0,0 -1.36,-4.13 0,0 -1.25,-5.01 0,0 -0.88,-3.39 0,0 -0.94,-2.23 0,0 -1.53,-2.29 0,0 -3.2,-3.91 0,0 -8.4,-9.99 0,0 -4.97,-6.04 0,0 -3.24,-4.07 0,0 -0.97,-1.61 0,0 -0.39,-1.69 0,0 0.27,-1.82 0,0 1.03,-2.29 0,0 2.06,-3.28 2.85,-4.25 -1.88,-3.72 0,0 -0.99,-1.89 0,0 -1.51,-2.77 0,0 -1.7,-3.07 0,0 -1.67,-2.93 0,0 -3.62,-6.49 0,0 -2.89,-5.53 0,0 -2.16,-4.49 0,0 -0.36,-1.65 0,0 0.47,-1.41 0,0 4.32,-5.6 0,0 4.31,-5.31 0,0 3.18,-3.37 0,0 1.81,-1.19 0,0 3.33,-1.27 0,0 5.46,-1.64 0,0 10.14,-2.73 0,0 7.45,-1.97 0,0 6.85,-1.82 0,0 5.75,-1.53 0,0 2.3,-0.63 3.58,-0.99 0.48,-3.45 0,0 0.15,-4.59 0,0 -0.3,-1.95 -0.62,-1.86 0,0 -0.84,-1.56 -1.13,-1.37 0,0 -1.37,-1.15 -1.56,-0.87 0,0 -1.92,-0.74 0,0 -1.47,-0.29 0,0 -1.66,0.03 0,0 -2.72,0.41 0,0 -2.56,0.55 0,0 -4.39,1.21 0,0 -5.06,1.49 0,0 -5.13,1.62 0,0 -6.68,2.1 0,0 -4.85,1.32 0,0 -4.19,0.85 0,0 -4.44,0.59 0,0 -18.41,2.06 0,0 -16.63,2.3 0,0 -13.71,2.26 0,0 -2.81,0.68 -2.71,1.01 0,0 -2.89,1.44 -2.75,1.7 0,0 -6.32,4.79 0,0 -6.46,5.96 0,0 -6.09,6.7 0,0 -5.39,6.84 -4.98,7.13 -4.58,7.4 0,0 -4.24,7.8 -3.83,8.01 -3.39,8.21 0,0 -3.05,8.67 -2.61,8.81 -2.15,8.93 0,0 -2.53,14.17 -1.57,14.31 0,0 -0.27,7.81 0.33,7.8 0.95,7.76 0,0 1.57,7.69 2.15,7.55 2.73,7.36 0,0 3.28,7.07 3.82,6.8 4.34,6.47 0,0 4.76,6.01 5.24,5.59 5.69,5.15 0,0 5.23,4.12 5.46,3.84 0,0 5.06,3.09 5.29,2.69 0,0 5.34,2.22 5.5,1.78 0,0 6.03,1.49 6.12,1.1 0,0 4.6,0.54 4.62,0.26 0,0 13.02,0.06 0,0 12.79,-0.5 0,0 4.01,-0.4 3.96,-0.71 0,0 6.38,-1.62 6.28,-2 0,0 6.97,-2.62 6.86,-2.91 0,0 7.17,-3.39 7.04,-3.67 0,0 7.01,-4 6.85,-4.26 0,0 4.56,-3.28 0,0 4.88,-4.15 0,0 6.69,-6.31 0,0 11.34,-11.2 0,0 7.91,-7.84 0,0 6.73,-6.6 0,0 6.04,-5.86 0,0 0.35,-0.14 0,0 0.14,0.06 0.07,0.14 0,0 0.15,8.58 0,0 0.11,9.64 0,0 0.03,11.45 0,29.88 -3.5,2.76 0,0 -4.21,3.1 -4.41,2.8 0,0 -13.41,7.47 0,0 -14.73,7.34 0,0 -13.35,5.73 0,0 -10.72,3.91 -10.89,3.43 0,0 -10.25,2.67 -10.39,2.1 0,0 -9.71,1.38 -9.78,0.8 0,0 -9.06,0.12 -9.04,-0.58" /><path
       id="path14"
       style="fill:none;stroke:#000000;stroke-width:0.035;stroke-linecap:round;stroke-linejoin:round;stroke-miterlimit:10;stroke-dasharray:none;stroke-opacity:1"
       d="m 371.34,186.92 -5.67,-1.12 -5.5,-1.76 0,0 -4.65,-2.21 -4.23,-2.93 0,0 -3.54,-3.41 -2.91,-3.95 0,0 -2.35,-4.57 -1.66,-4.87 0,0 -0.62,-3.09 -0.24,-3.14 0,0 -0.23,-19.99 0,0 0.05,-19.8 0,0 0.21,-3.6 0.56,-3.55 0,0 1.3,-4.56 1.95,-4.33 0,0 2.51,-3.9 3.09,-3.47 0,0 3.67,-3.04 4.08,-2.46 0,0 4.66,-2 4.87,-1.4 0,0 5.61,-0.83 0,0 7.11,-0.26 0,0 7.12,0.26 0,0 5.6,0.83 0,0 4.91,1.4 4.7,1.97 0,0 4.07,2.38 3.68,2.97 0,0 3.06,3.35 2.5,3.78 0,0 1.92,4.19 1.29,4.42 0,0 0.52,4.45 0,0 0.23,10.73 0,0 0.08,11.16 0,0 -0.48,2.59 0,0 -0.32,0.43 -0.49,0.21 0,0 -2.95,0.27 0,0 -5.2,0.16 0,0 -11.52,0.03 0,0 -15.65,-0.07 0,0 -1.89,-0.16 -1.85,-0.44 0,0 -1.05,-0.68 -0.58,-1.1 0,0 -0.48,-4.41 0,0 0.43,-3.88 0,0 0.51,-1.02 0.93,-0.68 0,0 1.56,-0.48 1.63,-0.18 0,0 10.38,-0.11 13.26,0 -0.37,-6.8 0,0 -0.39,-3.68 -0.74,-3.64 0,0 -1,-2.91 -1.48,-2.7 0,0 -1.83,-2.3 -2.22,-1.94 0,0 -2.79,-1.78 -2.99,-1.4 0,0 -2.54,-0.83 -2.62,-0.49 0,0 -6.86,-0.45 0,0 -6.84,0.38 0,0 -2.57,0.47 -2.5,0.81 0,0 -3.74,1.83 0,0 -2.97,2.19 0,0 -2.43,2.79 0,0 -2.12,3.61 -2.29,4.65 -0.24,18.98 0,0 -0.03,13.07 0,0 0.37,8.02 0,0 0.83,5.49 0,0 0.61,2.09 0.87,2.01 0,0 1.73,2.63 0,0 2.48,2.61 0,0 2.89,2.3 0,0 3,1.7 0,0 2.27,0.86 0,0 2.2,0.47 0,0 2.97,0.21 0,0 5.42,0.06 0,0 5.27,-0.05 0,0 3.01,-0.21 0,0 2.18,-0.43 0,0 2.09,-0.77 0,0 3.51,-1.99 0,0 2.88,-2.43 0,0 2.4,-3.02 0,0 2.09,-3.78 0,0 1.91,-3.6 0,0 0.69,-0.78 0.91,-0.49 0,0 1.08,-0.19 1.1,0.13 0,0 4.59,1.49 0,0 2.48,0.97 0,0 1.09,0.68 0,0 0.55,0.83 0,0 0.27,1.36 0,0 -0.02,1.59 -0.36,1.55 0,0 -1.92,4.49 0,0 -2.69,4.57 0,0 -2.99,3.61 0,0 -3.44,2.95 0,0 -4.05,2.57 0,0 -4.37,2.05 0,0 -4.43,1.37 0,0 -4.88,0.84 0,0 -6.17,0.49 0,0 -6.13,0.12 0,0 -4.72,-0.36" /><path
       id="path16"
       style="fill:none;stroke:#000000;stroke-width:0.035;stroke-linecap:round;stroke-linejoin:round;stroke-miterlimit:10;stroke-dasharray:none;stroke-opacity:1"
       d="m 792.33,186.89 -6.83,-1.41 -6.58,-2.31 0,0 -3.52,-1.82 -3.22,-2.31 -2.86,-2.74 0,0 -2.32,-2.99 -1.83,-3.32 -1.3,-3.56 0,0 -0.91,-4.1 -0.44,-4.18 0.03,-4.2 0,0 0.68,-4.57 0,0 1.4,-4.12 0,0 2.15,-3.66 0,0 2.86,-3.22 0,0 2.33,-1.91 2.52,-1.63 0,0 2.8,-1.41 2.93,-1.13 0,0 3.85,-1.12 3.92,-0.85 0,0 11.57,-1.8 0,0 10.25,-1.6 0,0 3.16,-0.72 3.08,-1.01 0,0 2.19,-1.02 2.01,-1.32 0,0 1.73,-1.57 1.46,-1.81 0,0 0.86,-1.51 0,0 0.45,-1.36 0,0 0.16,-1.71 0,0 -0.08,-2.84 0,0 -0.21,-2.77 0,0 -0.37,-1.85 0,0 -0.65,-1.57 0,0 -1.11,-1.79 0,0 -1.24,-1.52 -1.43,-1.34 0,0 -3.49,-2.2 0,0 -4.45,-1.6 0,0 -5.53,-1.03 0,0 -5.04,-0.36 -5.06,0.19 0,0 -4.32,0.77 -4.13,1.48 0,0 -3.62,2.05 -3.19,2.67 0,0 -2.89,3.35 -2.36,3.75 0,0 -1.12,1.97 0,0 -0.94,1.32 0,0 -0.83,0.8 0,0 -0.73,0.25 0,0 -1.68,-0.26 0,0 -3.55,-1.19 0,0 -3.49,-1.33 0,0 -1.52,-0.88 0,0 -0.78,-1.08 -0.1,-1.33 0,0 0.61,-2.37 0.86,-2.3 0,0 1.38,-2.8 1.63,-2.66 0,0 1.96,-2.66 2.16,-2.5 0,0 2.93,-2.77 3.24,-2.4 0,0 3.38,-1.89 3.61,-1.42 0,0 4.28,-1.08 4.38,-0.6 0,0 5.64,-0.3 5.66,0.02 0,0 5.67,0.23 0,0 3.58,0.35 0,0 2.97,0.59 0,0 3.34,1 0,0 4.41,1.78 0,0 4.17,2.23 0,0 3.56,2.46 0,0 2.55,2.46 0,0 2.52,3.56 1.87,3.95 0,0 1.34,4.49 0.71,4.64 0,0 0.07,4.69 -0.58,4.67 0,0 -1.19,4.21 -1.89,3.95 0,0 -2,2.84 -2.43,2.47 0,0 -2.92,2.16 -3.21,1.72 0,0 -4.22,1.62 -4.38,1.16 0,0 -6.08,1.15 -6.13,0.88 0,0 -11.3,1.78 0,0 -3.77,0.93 -3.65,1.32 0,0 -2.53,1.32 -2.28,1.71 0,0 -1.71,1.9 -1.25,2.23 0,0 -0.58,1.8 -0.29,1.87 0,0 0,2.01 0.26,1.99 0,0 0.54,1.95 0.79,1.86 0,0 1,1.64 1.25,1.46 0,0 1.54,1.35 1.71,1.13 0,0 1.91,0.95 2.01,0.72 0,0 4.98,0.95 0,0 6.52,0.34 0,0 5.28,-0.02 0,0 2.58,-0.24 0,0 2.14,-0.62 0,0 3.04,-1.36 0,0 3.38,-2 0,0 2.93,-2.43 0,0 2.57,-2.97 0,0 2.32,-3.6 0,0 1.56,-2 0,0 0.81,-0.53 0.94,-0.24 0,0 1.2,0.03 1.17,0.3 0,0 3.78,1.67 0,0 3.42,2.03 0,0 0.77,0.79 0.44,1.01 0,0 0.07,1.17 -0.31,1.13 0,0 -2.11,4.04 0,0 -1.96,3 -2.22,2.83 0,0 -2.34,2.45 -2.57,2.21 0,0 -2.75,1.89 -2.94,1.6 0,0 -3.18,1.34 -3.29,1.02 0,0 -4.51,0.83 0,0 -6.25,0.5 0,0 -6.36,0.12 0,0 -4.88,-0.36" /><path
       id="path18"
       style="fill:none;stroke:#000000;stroke-width:0.035;stroke-linecap:round;stroke-linejoin:round;stroke-miterlimit:10;stroke-dasharray:none;stroke-opacity:1"
       d="m 436.56,184.44 -1.54,-1.08 0,-47.97 0,0 0.04,-21.17 0,0 0.14,-15.05 0,0 0.19,-11.75 0,0 0.35,-1.34 0,0 0.64,-0.7 0,0 0.96,-0.41 0,0 1.63,-0.19 0,0 3.23,-0.04 0,0 2.44,0.05 0,0 1.99,0.17 0,0 1.5,0.26 0,0 0.65,0.35 0,0 0.46,1.07 0,0 0.19,10.03 0,0 0.15,14.18 0,0 0.03,24.02 0,0 -0.03,28.2 0,0 -0.15,12.39 0,0 -0.24,7.44 0,0 -0.19,0.83 -0.48,0.7 0,0 -0.85,0.61 -0.99,0.29 0,0 -3.9,0.23 0,0 -3.95,-0.24 0,0 -1.19,-0.3 -1.08,-0.58" /><path
       id="path20"
       style="fill:none;stroke:#000000;stroke-width:0.035;stroke-linecap:round;stroke-linejoin:round;stroke-miterlimit:10;stroke-dasharray:none;stroke-opacity:1"
       d="m 500.16,184.3 -1.12,-1.48 -0.83,-1.67 0,0 -17.74,-45.57 0,0 -17.85,-45.95 0,0 -0.34,-1.38 -0.01,-1.42 0,0 0.33,-1 0,0 0.65,-0.53 0,0 1.35,-0.25 0,0 3.79,-0.16 0,0 2.71,-0.04 0,0 2.04,0.11 0,0 1.49,0.23 0,0 0.86,0.39 0,0 0.63,0.78 0,0 1.52,3.32 0,0 1.7,4.02 0,0 1.8,4.59 4.48,11.82 20.72,0 20.72,0 4.66,-12.09 0,0 1.86,-4.68 0,0 1.71,-4.03 0,0 1.52,-3.39 0,0 0.5,-0.59 0,0 0.65,-0.23 0,0 1.84,-0.14 0,0 2.23,-0.08 0,0 2.46,0.03 0,0 4.07,0.15 0,0 1.4,0.24 0,0 0.66,0.54 0,0 0.34,1.04 0,0 -0.18,1.5 0,0 -4.6,12.43 0,0 -5.68,15.04 0,0 -7.45,19.23 0,0 -7,17.89 0,0 -6.03,15.32 0,0 -5.32,13.48 0,0 -0.56,1.21 0,0 -0.98,1.39 0,0 -1.13,0.73 0,0 -1.79,0.33 0,0 -3.7,0.08 0,0 -2.72,-0.04 0,0 -1.7,-0.2 0,0 -1.14,-0.36 0,0 -0.82,-0.61" /><path
       id="path22"
       style="fill:none;stroke:#000000;stroke-width:0.035;stroke-linecap:round;stroke-linejoin:round;stroke-miterlimit:10;stroke-dasharray:none;stroke-opacity:1"
       d="m 508.08,161.92 0.58,-1.67 0,0 1.99,-5.42 0,0 2.4,-6.44 0,0 2.68,-7.16 0,0 2.63,-7.02 0,0 2.22,-5.97 0,0 1.97,-5.33 0,0 0.05,-0.28 0,0 -0.04,-0.1 -0.11,-0.04 0,0 -4.67,-0.11 0,0 -5.3,-0.08 0,0 -6.29,-0.03 0,0 -10.12,0.03 0,0 -3.77,0.15 0,0 -1.72,0.35 0,0 -0.23,0.15 -0.12,0.26 0.03,0.28 0,0 4.55,11.76 0,0 4.76,12.69 0,0 4.31,11.75 0,0 1.09,3.59 0,0 0.36,1.67 0,0 0.32,1.85 0,0 0.24,1.75 0,0 0.1,1.34 0,0 0.07,1.56 0,0 0.05,0.05 0.06,-0.03 0,0 0.15,-0.44 0,0 0.37,-2.5 0,0 0.29,-1.77 0,0 0.37,-1.88 0,0 0.38,-1.72 0,0 0.35,-1.24" /><path
       id="path24"
       style="fill:none;stroke:#000000;stroke-width:0.035;stroke-linecap:round;stroke-linejoin:round;stroke-miterlimit:10;stroke-dasharray:none;stroke-opacity:1"
       d="m 562.52,184.54 -0.6,-0.69 -0.27,-0.87 0,0 -0.32,-5.77 0,0 -0.2,-10.64 0,0 -0.14,-30.61 0,0 -0.04,-20.68 0,0 0.08,-15.14 0,0 0.14,-11.9 0,0 0.33,-1.71 0,0 0.61,-1.08 0,0 0.79,-0.5 0,0 1.41,-0.16 0,0 3.98,0.09 6.09,0.21 0.21,31.62 0,0 0.02,18.98 0,0 -0.27,13.67 0,0 -0.53,9.89 0,0 -0.9,5.77 0,0 0.01,0.05 0.03,0.03 0.05,0 0.04,-0.03 0,0 1.24,-2.13 0,0 1.69,-3.05 0,0 2.07,-3.91 0,0 3.71,-6.57 0,0 5.16,-8.24 0,0 7.17,-10.81 0,0 10.3,-15.04 20.87,-30.23 5.74,-0.21 0,0 2.49,-0.03 0,0 2,0.1 0,0 1.5,0.2 0,0 0.72,0.34 0,0 0.42,0.53 0.16,0.66 0,0 0.22,8.43 0,0 0.14,13.13 0,0 0.04,26.58 0,0 -0.04,28.23 0,0 -0.15,12.4 0,0 -0.24,7.45 0,0 -0.19,0.83 -0.48,0.7 0,0 -0.86,0.62 -1.02,0.3 0,0 -3.97,0.23 0,0 -3.98,-0.23 0,0 -1.02,-0.3 -0.86,-0.62 0,0 -0.44,-0.63 -0.2,-0.74 0,0 -0.27,-4.43 0,0 -0.14,-7.53 0,0 -0.03,-16.38 0,0 0.08,-16.81 0,0 0.25,-10.68 0,0 0.51,-8.87 0,0 0.91,-9.99 0.4,-3.82 -4.43,8.41 0,0 -3.67,6.6 0,0 -3.75,6.04 0,0 -6.11,9.09 0,0 -16.83,24.42 0,0 -6.79,9.76 0,0 -5.92,8.3 0,0 -5.23,7.2 0,0 -0.74,0.58 0,0 -2.2,0.49 0,0 -3.57,0.02 0,0 -3.53,-0.27 0,0 -1.65,-0.65" /><path
       id="path26"
       style="fill:none;stroke:#000000;stroke-width:0.035;stroke-linecap:round;stroke-linejoin:round;stroke-miterlimit:10;stroke-dasharray:none;stroke-opacity:1"
       d="m 651.71,184.77 -0.62,-0.63 0,0 -0.36,-1.01 0,0 -0.19,-1.65 0,0 -0.05,-2.96 0,0 0.04,-3.48 0,0 0.21,-1.38 0,0 0.52,-0.77 0,0 1.02,-0.59 0,0 1.24,-0.27 0,0 3.88,-0.21 0,0 4.65,-0.15 0,0 5.17,-0.05 13.16,0 0,-41.66 0,0 0.05,-17.3 0,0 0.14,-13.53 0,0 0.19,-11.05 0,0 0.3,-1.56 0,0 0.59,-1.02 0,0 0.8,-0.51 0,0 1.42,-0.21 0,0 3.65,-0.04 0,0 2.46,0.05 0,0 2,0.17 0,0 1.51,0.26 0,0 0.65,0.35 0,0 0.46,1.06 0,0 0.2,8.81 0,0 0.14,12.5 0,0 0.04,21.03 0,42.57 14.21,0.22 0,0 6.9,0.14 0,0 4.35,0.22 0,0 2.93,0.29 0,0 0.94,0.46 0,0 0.39,0.67 0,0 0.28,1.29 0,0 0.18,1.72 0,0 0.05,2.11 0,0 -0.05,2.63 0,0 -0.2,1.52 0,0 -0.41,0.99 0,0 -0.69,0.74 0,0 -1.58,0.56 0,0 -6.04,0.24 0,0 -9.65,0.14 0,0 -18.87,0.02 0,0 -15.02,-0.05 0,0 -11.07,-0.15 0,0 -8.75,-0.2 0,0 -1.17,-0.33" /><path
       id="path28"
       style="fill:none;stroke:#000000;stroke-width:0.035;stroke-linecap:round;stroke-linejoin:round;stroke-miterlimit:10;stroke-dasharray:none;stroke-opacity:1"
       d="m 739.84,184.59 -0.75,-1.01 0,0 -0.75,-2.48 0,0 -0.88,-3.94 0,0 -1.23,-6.65 0,0 -0.88,-5.17 0,0 -0.75,-4.67 0,0 -0.59,-3.92 0,0 -0.1,-1.29 0,0 0.11,-1.13 0,0 0.14,-0.3 0.26,-0.22 0,0 0.85,-0.22 0,0 2.37,-0.04 0,0 1.61,0.06 0,0 1.34,0.2 0,0 1.02,0.29 0,0 0.56,0.41 0,0 1.07,1.88 0,0 4.22,12.06 0,0 4.14,12.04 0,0 0.37,2.27 0,0 -0.09,0.56 0,0 -0.3,0.59 0,0 -0.44,0.52 0,0 -0.51,0.37 0,0 -2.03,0.6 0,0 -3.53,0.1 0,0 -3.49,-0.23 0,0 -1.74,-0.68" /><path
       id="path30"
       style="fill:none;stroke:#000000;stroke-width:0.035;stroke-linecap:round;stroke-linejoin:round;stroke-miterlimit:10;stroke-dasharray:none;stroke-opacity:1"
       d="m 347.15,62.13 -2.26,-1.02 -2.12,-1.31 0,0 -1.72,-1.45 -1.45,-1.71 0,0 -1.13,-1.92 -0.78,-2.07 0,0 -0.49,-2.36 -0.16,-2.39 0,0 0.35,-3.59 0,0 1.03,-3.18 0,0 1.69,-2.64 0,0 2.27,-2.02 0,0 2.34,-1.2 0,0 3.1,-0.99 0,0 4.85,-1.07 0,0 9.02,-1.66 0,0 2.51,-0.5 0,0 2.37,-0.59 0,0 1.99,-0.59 0,0 0.98,-0.47 0,0 1.83,-1.59 1.33,-2.03 0,0 0.82,-2.44 0.24,-2.56 0,0 -0.35,-2.59 -0.93,-2.45 0,0 -1.43,-2.08 -1.91,-1.66 0,0 -1.2,-0.64 0,0 -1.81,-0.67 0,0 -2.06,-0.6 0,0 -2.01,-0.42 0,0 -3.21,-0.34 -3.23,0.04 0,0 -2.92,0.43 -2.83,0.89 0,0 -2.5,1.25 -2.26,1.65 0,0 -1.97,2 -1.61,2.3 0,0 -1.44,2.2 0,0 -1.18,1.06 0,0 -1.19,0.2 0,0 -1.36,-0.52 0,0 -0.45,-0.47 0,0 -0.13,-0.59 0,0 0.22,-0.89 0,0 0.7,-1.69 0,0 1.46,-2.74 1.83,-2.52 0,0 2.03,-2.01 2.36,-1.63 0,0 2.78,-1.28 2.95,-0.82 0,0 3.65,-0.52 3.67,-0.17 0,0 4.62,0.23 4.57,0.71 0,0 3.34,1.09 3.01,1.82 0,0 2.2,2.23 1.51,2.74 0,0 0.99,3.45 0.33,3.58 0,0 -0.26,3.21 -0.81,3.13 0,0 -1.26,2.4 -1.89,1.95 0,0 -2.79,1.73 -3.08,1.12 0,0 -4.87,1.06 -4.93,0.76 0,0 -6.77,1.15 0,0 -2.37,0.67 -2.27,0.97 0,0 -1.62,1 -1.41,1.27 0,0 -1.08,1.44 -0.74,1.63 0,0 -0.53,2.79 0.2,2.83 0,0 0.93,2.54 1.64,2.15 0,0 2.49,1.88 2.85,1.23 0,0 3.67,0.8 3.74,0.28 0,0 4.97,-0.38 0,0 2,-0.46 1.91,-0.75 0,0 1.69,-0.97 1.52,-1.22 0,0 2.83,-3.33 0,0 1.76,-2.43 0,0 1.07,-0.91 0,0 0.5,-0.14 0.51,0.07 0,0 1.32,0.69 0,0 0.69,0.63 0,0 0.19,0.54 0,0 -0.18,0.75 0,0 -0.85,1.73 0,0 -1.52,2.39 0,0 -2.07,2.33 0,0 -2.39,2.07 0,0 -2.5,1.57 0,0 -1.74,0.71 -1.84,0.37 0,0 -6.73,0.44 0,0 -6.79,-0.06 0,0 -2.05,-0.27 -1.99,-0.58" /><path
       id="path32"
       style="fill:none;stroke:#000000;stroke-width:0.035;stroke-linecap:round;stroke-linejoin:round;stroke-miterlimit:10;stroke-dasharray:none;stroke-opacity:1"
       d="m 485.06,62.54 -3.79,-1.67 0,0 -3.5,-2.6 0,0 -2.83,-3.19 0,0 -1.01,-1.66 -0.77,-1.78 0,0 -0.46,-1.99 0,0 -0.28,-3.42 0,0 -0.17,-4.86 0,0 -0.05,-7.03 0,0 0.17,-11.04 0,0 0.23,-2.78 0.5,-2.76 0,0 0.63,-1.94 0.98,-1.81 0,0 1.41,-1.87 1.63,-1.69 0,0 3.38,-2.45 0,0 1.84,-0.9 1.94,-0.66 0,0 4.61,-0.76 0,0 5.89,-0.04 0,0 3.65,0.23 0,0 2.45,0.36 0,0 2.02,0.59 0,0 2.17,0.97 0,0 2.88,1.84 0,0 2.32,2.24 0,0 1.79,2.7 0,0 1.28,3.17 0,0 0.61,2.65 0.27,2.71 0,0 0.16,11.36 0,0 -0.24,11.36 0,0 -0.28,2.77 -0.63,2.72 0,0 -1.51,3.39 0,0 -2.44,3.13 0,0 -3.06,2.55 0,0 -3.36,1.66 0,0 -3.53,0.75 0,0 -5.76,0.34 0,0 -5.75,-0.02 0,0 -3.39,-0.57" /><path
       id="path34"
       style="fill:none;stroke:#000000;stroke-width:0.035;stroke-linecap:round;stroke-linejoin:round;stroke-miterlimit:10;stroke-dasharray:none;stroke-opacity:1"
       d="m 502.98,57.43 1.62,-0.94 0,0 1.38,-1.11 0,0 1.22,-1.33 0,0 1.15,-1.63 2.08,-3.37 0,-14.65 0,-14.65 -1.91,-3.25 0,0 -1.15,-1.65 -1.39,-1.46 0,0 -1.61,-1.25 -1.78,-1 0,0 -2.07,-0.81 -2.15,-0.53 0,0 -4.97,-0.4 0,0 -5.46,0.54 0,0 -2.19,0.59 -2.08,0.92 0,0 -1.73,1.14 -1.51,1.42 0,0 -1.33,1.74 -1.06,1.91 0,0 -0.69,2.07 0,0 -0.37,2.64 0,0 -0.19,4.09 0,0 -0.05,7.73 0,0 0.11,9.55 0,0 0.49,4.92 0,0 1.09,3.24 0,0 1.97,2.83 0,0 2.02,1.75 2.34,1.27 0,0 2.94,0.99 3.04,0.58 0,0 3.23,0.17 3.23,-0.25 0,0 2.96,-0.68 2.82,-1.13" /><path
       id="path36"
       style="fill:none;stroke:#000000;stroke-width:0.035;stroke-linecap:round;stroke-linejoin:round;stroke-miterlimit:10;stroke-dasharray:none;stroke-opacity:1"
       d="m 404.06,61.62 -0.14,-0.7 0,0 -0.05,-7.87 0,0 -0.01,-8.95 0,0 0.04,-10.45 0.19,-27.11 1.91,-0.22 1.91,-0.22 0,13.25 0,13.26 16.33,0 16.34,0 0,-13.21 0,-13.21 2.08,0 2.09,0 0,28.15 0,28.15 -2.09,0 -2.08,0 0,-12.85 0,-12.86 -16.34,0 -16.33,0 0,12.86 0,12.85 -1.76,0 0,0 -0.7,-0.06 0,0 -0.64,-0.19 0,0 -0.5,-0.28 0,0 -0.25,-0.34" /><path
       id="path38"
       style="fill:none;stroke:#000000;stroke-width:0.035;stroke-linecap:round;stroke-linejoin:round;stroke-miterlimit:10;stroke-dasharray:none;stroke-opacity:1"
       d="m 542.06,41.2 0.05,-9.61 0,0 0.15,-7.08 0,0 0.24,-5.19 0,0 0.38,-2.14 0,0 1.36,-2.96 0,0 2.34,-2.96 0,0 2.92,-2.58 0,0 3.13,-1.8 0,0 3.81,-1.11 0,0 5.14,-0.52 0,0 5.25,0.08 0,0 4.22,0.75 0,0 3.11,1.3 0,0 2.99,2.06 0,0 2.59,2.58 0,0 1.89,2.86 1.79,3.48 0.21,22.07 0.22,22.06 -2.13,0 -2.13,0 0,-19.68 0,0 -0.13,-14.57 0,0 -0.6,-6.93 0,0 -0.51,-2.2 -0.82,-2.1 0,0 -1.1,-1.86 -1.39,-1.65 0,0 -2.77,-2.07 0,0 -3.52,-1.48 0,0 -3.96,-0.76 0,0 -4.1,0.04 0,0 -2.47,0.4 -2.41,0.68 0,0 -2.11,0.91 -1.95,1.22 0,0 -1.62,1.4 -1.38,1.64 0,0 -1.06,1.81 -0.73,1.96 0,0 -0.3,1.87 0,0 -0.22,5.71 0,0 -0.15,7.05 0,0 -0.06,8.28 0,20.33 -2.09,0 -2.08,0 0,-21.29" /><path
       id="path40"
       style="fill:none;stroke:#000000;stroke-width:0.035;stroke-linecap:round;stroke-linejoin:round;stroke-miterlimit:10;stroke-dasharray:none;stroke-opacity:1"
       d="m 612.26,34.34 0,-28.15 16.69,0 16.68,0 0,2.09 0,2.08 -14.6,0 -14.6,0 0,26.07 0,26.06 -2.08,0 -2.09,0 0,-28.15" /><path
       id="path42"
       style="fill:none;stroke:#000000;stroke-width:0.035;stroke-linecap:round;stroke-linejoin:round;stroke-miterlimit:10;stroke-dasharray:none;stroke-opacity:1"
       d="m 669.6,61.69 -0.14,-0.76 0,0 -0.06,-7.86 0,0 -0.02,-8.96 0,0 0.05,-10.46 0.18,-27.11 11.81,0 0,0 6.3,0.05 0,0 3.91,0.2 0,0 2.81,0.37 0,0 2.39,0.63 0,0 3.7,1.75 0,0 3.27,2.5 0,0 2.61,3.07 0,0 1.78,3.43 0,0 0.82,2.72 0,0 0.4,2.69 0,0 0.13,3.88 0,0 -0.09,7.89 0,0 -0.31,9.55 0,0 -0.24,2.38 -0.49,2.33 0,0 -0.63,1.73 -0.92,1.58 0,0 -2.96,3.43 0,0 -3.63,2.81 0,0 -1.84,0.95 -1.96,0.66 0,0 -2.59,0.55 -2.63,0.3 0,0 -8.95,0.38 0,0 -6.45,0.1 0,0 -3.5,-0.08 0,0 -2.13,-0.21 0,0 -0.38,-0.16 -0.24,-0.33" /><path
       id="path44"
       style="fill:none;stroke:#000000;stroke-width:0.035;stroke-linecap:round;stroke-linejoin:round;stroke-miterlimit:10;stroke-dasharray:none;stroke-opacity:1"
       d="m 696.82,56.42 2.76,-1.87 0,0 2.35,-2.45 0,0 1.76,-2.84 0,0 1.07,-3.06 0,0 0.3,-2.06 0,0 0.19,-3.37 0,0 0.09,-4.06 0,0 -0.05,-4.45 0,0 -0.2,-5.91 0,0 -0.28,-3.21 0,0 -0.48,-2.19 0,0 -0.82,-1.98 0,0 -1.4,-2.19 -1.72,-1.94 0,0 -1.92,-1.52 -2.17,-1.12 0,0 -2.84,-0.91 -2.94,-0.5 0,0 -8.53,-0.43 -8.56,0 0,24.05 0,24.04 10.25,-0.25 0,0 5.82,-0.19 0,0 3.16,-0.28 0,0 2.18,-0.48 0,0 1.98,-0.83" /><path
       id="path46"
       style="fill:none;stroke:#000000;stroke-width:0.035;stroke-linecap:round;stroke-linejoin:round;stroke-miterlimit:10;stroke-dasharray:none;stroke-opacity:1"
       d="m 736.68,34.33 0,-28.16 17.9,0.19 17.9,0.18 0,1.74 0,1.74 -15.81,0.18 -15.82,0.19 0,11.11 0,11.11 13.56,0 13.55,0 0,2.08 0,2.09 -13.55,0 -13.56,0 0,10.77 0,10.77 15.3,0 15.29,0 0,2.09 0,2.08 -17.38,0 -17.38,0 0,-28.16" /><path
       id="path48"
       style="fill:none;stroke:#000000;stroke-width:0.035;stroke-linecap:round;stroke-linejoin:round;stroke-miterlimit:10;stroke-dasharray:none;stroke-opacity:1"
       d="m 798.19,61.67 -0.14,-0.74 0,0 -0.06,-7.87 0,0 -0.02,-8.96 0,0 0.05,-10.45 0.18,-27.11 2.08,0 2.09,0 0.19,12.05 0.19,12.04 8.84,-0.23 0,0 7.53,-0.52 0,0 1.89,-0.47 1.71,-0.95 0,0 1.56,-1.43 1.23,-1.73 0,0 4.65,-8.7 0,0 3.33,-6.48 0,0 1.48,-2.43 0,0 1.16,-1.11 0,0 1.36,-0.39 0,0 0.91,0.07 0,0 0.64,0.2 0,0 0.38,0.33 0,0 0.14,0.46 0,0 -0.14,1.13 -0.39,1.07 0,0 -4.2,8.24 0,0 -4.21,7.86 0,0 -2.24,3.19 0,0 -1.26,1.48 0,0 -0.35,0.65 0,0 0,0.23 0.13,0.18 0,0 0.6,0.32 0,0 2.48,0.96 2.32,1.27 0,0 1.82,1.44 1.5,1.78 0,0 1.16,2.1 0.74,2.3 0,0 0.48,2.86 0.15,2.89 0,0 -0.44,4.08 0,0 -0.54,1.85 -0.77,1.77 0,0 -0.96,1.58 -1.16,1.43 0,0 -1.33,1.23 -1.5,1.03 -3.36,1.98 -14.78,0.22 0,0 -7.67,0.08 0,0 -4.2,-0.09 0,0 -2.62,-0.2 0,0 -0.38,-0.15 -0.25,-0.34" /><path
       id="path50"
       style="fill:none;stroke:#000000;stroke-width:0.035;stroke-linecap:round;stroke-linejoin:round;stroke-miterlimit:10;stroke-dasharray:none;stroke-opacity:1"
       d="m 828.91,56.51 2.09,-1.97 0,0 1.47,-2.32 0,0 0.85,-2.69 0,0 0.26,-3.11 0,0 -0.39,-3.47 0,0 -1.05,-2.76 0,0 -1.79,-2.18 0,0 -2.6,-1.75 0,0 -2.14,-0.87 0,0 -2.19,-0.45 0,0 -3.22,-0.2 0,0 -6.51,-0.05 -10.97,0 0,11.86 0,11.86 12.11,-0.21 0,0 7.2,-0.17 0,0 3.31,-0.25 0,0 2,-0.45 0,0 1.57,-0.82" /></g></svg>